<svg xmlns="http://www.w3.org/2000/svg" width="53.357" height="40" viewBox="0 0 53.357 40"><defs><style>.a{fill:#52247f;}.b{fill:#0065a4;}.c{fill:#c41230;}</style></defs><path class="a" d="M269.716,150.583v.56L268.7,163.9l1.016-.416c4.279-.648,7.23-4.319,7.23-12.9,0-7.542-2.367-10.806-3.615-9.806-3.175-1.184-4.511,4.135-3.655,8.79A8.631,8.631,0,0,1,269.716,150.583Z" transform="translate(-246.657 -135.442)"/><path class="b" d="M8.249,99.159H.33V83.33H8.249a7.931,7.931,0,0,1,7.918,7.918,15.081,15.081,0,0,1,3.615-9.806A15.131,15.131,0,0,0,8.249,76.1H-6.9v30.29H8.241a15.084,15.084,0,0,0,7.918-2.248v-12.9A7.924,7.924,0,0,1,8.249,99.159Z" transform="translate(6.9 -76.1)"/><path class="c" d="M337.806,76.1A15.088,15.088,0,0,0,326.4,81.438a15.081,15.081,0,0,1,3.615,9.806,7.937,7.937,0,0,1,8.166-7.918,8.042,8.042,0,0,1,7.686,8.078v14.981h7.23v-14.9A15.38,15.38,0,0,0,337.806,76.1Z" transform="translate(-299.742 -76.095)"/><path class="c" d="M281.4,278.3v2.248h7.23V265.4A15.177,15.177,0,0,1,281.4,278.3Z" transform="translate(-258.341 -250.259)"/><path class="b" d="M1.786,504.108a2.017,2.017,0,0,0-1.976,2.144,2.044,2.044,0,0,0,2.04,2.144,2.078,2.078,0,0,0,1.68-.768l.04-.04-.456-.416-.04.04a1.6,1.6,0,0,1-1.224.544,1.3,1.3,0,0,1-1.328-1.208H3.7V506.3A1.95,1.95,0,0,0,1.786,504.108ZM.538,505.931a1.294,1.294,0,0,1,1.224-1.224,1.258,1.258,0,0,1,1.208,1.224Zm37.9-1.824a2.114,2.114,0,0,0-2.144,2.144v.024a2.132,2.132,0,1,0,4.263-.024v-.032A2.1,2.1,0,0,0,38.434,504.108Zm1.408,2.135a1.4,1.4,0,0,1-1.416,1.472,1.447,1.447,0,0,1-1.416-1.5V506.2a1.4,1.4,0,0,1,1.392-1.472,1.478,1.478,0,0,1,1.44,1.52ZM6.377,504.108a1.772,1.772,0,0,0-1.472.768v-2.328H4.2v5.735h.7v-.648a1.818,1.818,0,0,0,1.472.728,2,2,0,0,0,1.952-2.144V506.2A1.962,1.962,0,0,0,6.377,504.108ZM7.6,506.243a1.353,1.353,0,0,1-1.352,1.472,1.421,1.421,0,0,1-1.392-1.472v-.024a1.433,1.433,0,0,1,1.392-1.472,1.374,1.374,0,0,1,1.352,1.5Zm34.113-1.208v-.848h-.7v4.1h.7v-1.64c0-1.08.6-1.768,1.52-1.768h.1v-.752h-.064A1.689,1.689,0,0,0,41.714,505.035Zm-43.191,3.247h.7v-3.951h-.7v3.951Zm47.246-5.159a1.945,1.945,0,0,1,.56.1l.064.024v-.624l-.04-.024a1.7,1.7,0,0,0-.664-.1,1.153,1.153,0,0,0-.9.336,1.462,1.462,0,0,0-.352,1.056v.288H43.9v.624h.544v3.471h.7V504.8h1.248v-.624H45.129v-.272C45.145,503.4,45.329,503.124,45.769,503.124Zm-50.733-.352H-6.9v5.5h1.936a2.749,2.749,0,0,0,2.927-2.759V505.5A2.733,2.733,0,0,0-4.964,502.772Zm2.184,2.767a2.031,2.031,0,0,1-2.184,2.056H-6.172v-4.151h1.208a2.048,2.048,0,0,1,2.184,2.1Zm16.117,2.743h.7v-5.735h-.7Zm4.591-3.455a1.818,1.818,0,0,0-1.472-.728,2,2,0,0,0-1.952,2.144v.024a2.005,2.005,0,0,0,1.952,2.12,1.772,1.772,0,0,0,1.472-.768v.688h.7v-5.735h-.7Zm.04,1.416a1.433,1.433,0,0,1-1.392,1.472,1.367,1.367,0,0,1-1.352-1.472v-.024a1.353,1.353,0,0,1,1.352-1.472,1.418,1.418,0,0,1,1.392,1.5Zm17.2-1.416A1.818,1.818,0,0,0,33.7,504.1a2,2,0,0,0-1.952,2.144v.024a2.005,2.005,0,0,0,1.952,2.12,1.772,1.772,0,0,0,1.472-.768v.688h.7v-5.735h-.7Zm.024,1.416a1.433,1.433,0,0,1-1.392,1.472,1.367,1.367,0,0,1-1.352-1.472v-.024a1.353,1.353,0,0,1,1.352-1.472,1.423,1.423,0,0,1,1.392,1.5ZM25.013,507l-3.327-4.215h-.648v5.5h.7v-4.319l3.383,4.3.024.024h.56v-5.5h-.7V507Zm-14.165-2.887A2.114,2.114,0,0,0,8.7,506.251v.024a2.132,2.132,0,1,0,4.263-.024v-.032A2.077,2.077,0,0,0,10.848,504.108Zm1.408,2.135a1.4,1.4,0,0,1-1.416,1.472,1.447,1.447,0,0,1-1.416-1.5V506.2a1.4,1.4,0,0,1,1.392-1.472,1.463,1.463,0,0,1,1.44,1.52Zm14.421,2.04h.7v-4.1h-.7Zm5.191-4.1H31.06l-1.144,1.5-1.144-1.5h-.808L29.5,506.2l-1.6,2.08h.808l1.208-1.6,1.208,1.6h.832l-1.624-2.1Zm-32.993-1.352a.429.429,0,0,0-.44.44.429.429,0,0,0,.44.44.429.429,0,0,0,.44-.44A.439.439,0,0,0-1.125,502.836Zm28.194,0a.44.44,0,1,0,.44.44A.429.429,0,0,0,27.069,502.836Z" transform="translate(6.9 -468.395)"/></svg>