<?xml version="1.0" encoding="UTF-8"?>
<svg width="24px" height="24px" viewBox="0 0 24 24" version="1.1" xmlns="http://www.w3.org/2000/svg" xmlns:xlink="http://www.w3.org/1999/xlink">
    <!-- Generator: Sketch 55.1 (78136) - https://sketchapp.com -->
    <title>Icon/Social/Linkedin</title>
    <desc>Created with Sketch.</desc>
    <defs>
        <path d="M20.1468171,19.3795974 L16.8323185,19.3795974 L16.8323185,14.1911466 C16.8323185,12.9542637 16.8099652,11.3634534 15.1086302,11.3634534 C13.3849419,11.3634534 13.1216696,12.7121028 13.1216696,14.1029752 L13.1216696,19.3795974 L9.80965472,19.3795974 L9.80965472,8.71210284 L12.9863079,8.71210284 L12.9863079,10.1700352 L13.0322564,10.1700352 C13.475597,9.33178617 14.5560068,8.44758871 16.1691704,8.44758871 C19.5271338,8.44758871 20.1468171,10.6568405 20.1468171,13.5292404 L20.1468171,19.3795974 Z M6.07168514,7.25541237 C5.00741939,7.25541237 4.14681709,6.39356822 4.14681709,5.33178617 C4.14681709,4.27124596 5.00741939,3.40940181 6.07168514,3.40940181 C7.13222535,3.40940181 7.99282765,4.27124596 7.99282765,5.33178617 C7.99282765,6.39356822 7.13222535,7.25541237 6.07168514,7.25541237 L6.07168514,7.25541237 Z M4.41008937,19.3795974 L7.72955537,19.3795974 L7.72955537,8.71210284 L4.41008937,8.71210284 L4.41008937,19.3795974 Z" id="path-1"></path>
    </defs>
    <g id="Icon/Social/Linkedin" stroke="none" stroke-width="1" fill="none" fill-rule="evenodd">
        <mask id="mask-2" fill="white">
            <use xlink:href="#path-1"></use>
        </mask>
        <use id="Fill-1" fill="#FFFFFF" xlink:href="#path-1"></use>
        <g id="Color/Site-Grays/Light-Slate" mask="url(#mask-2)" fill="#9A9CAE">
            <rect id="9A9CAE" x="0" y="0" width="24" height="24"></rect>
        </g>
    </g>
</svg>