<?xml version="1.0" encoding="UTF-8"?>
<svg width="24px" height="24px" viewBox="0 0 24 24" version="1.1" xmlns="http://www.w3.org/2000/svg" xmlns:xlink="http://www.w3.org/1999/xlink">
    <!-- Generator: Sketch 55.1 (78136) - https://sketchapp.com -->
    <title>Icon/Social/Twitter</title>
    <desc>Created with Sketch.</desc>
    <defs>
        <path d="M19.4255296,9.46671862 C19.4255296,9.31364332 19.4224696,9.16125723 19.4156016,9.00969821 C20.0965536,8.51077335 20.6884936,7.8882028 21.1555176,7.17934216 C20.5305976,7.46068092 19.8580096,7.65035369 19.1525776,7.73588564 C19.8726296,7.29830118 20.4255376,6.605775 20.6862496,5.78036761 C20.0121656,6.18528315 19.2660696,6.47985489 18.4716256,6.63837501 C17.8351456,5.95129366 16.9287056,5.52149736 15.9257056,5.52149736 C13.9994016,5.52149736 12.4373736,7.10469986 12.4373736,9.05635826 C12.4373736,9.3338374 12.4680416,9.60352838 12.5278816,9.86239863 C9.62924558,9.71469923 7.05877758,8.30793652 5.33878558,6.16894868 C5.03897358,6.69123803 4.86638958,7.29830118 4.86638958,7.9457525 C4.86638958,9.1722158 5.48219758,10.2549082 6.41848958,10.8882995 C5.84640558,10.8704488 5.30886558,10.7111016 4.83878158,10.4460284 C4.83803358,10.4607776 4.83803358,10.4755958 4.83803358,10.4911032 C4.83803358,12.2033962 6.04040958,13.6326964 7.63623358,13.9568356 C7.34328958,14.0376119 7.03504558,14.0812394 6.71680558,14.0812394 C6.49206558,14.0812394 6.27351358,14.0586331 6.06114958,14.0174178 C6.50512158,15.4219061 7.79263358,16.4439474 9.31943758,16.4727567 C8.12542558,17.4209827 6.62167358,17.9860036 4.98756558,17.9860036 C4.70611358,17.9860036 4.42853758,17.9696691 4.15551758,17.9370002 C5.69918558,18.9396744 7.53192158,19.5248894 9.50194958,19.5248894 C15.9172736,19.5248894 19.4255296,14.1378931 19.4255296,9.46671862 Z" id="path-1"></path>
    </defs>
    <g id="Icon/Social/Twitter" stroke="none" stroke-width="1" fill="none" fill-rule="evenodd">
        <mask id="mask-2" fill="white">
            <use xlink:href="#path-1"></use>
        </mask>
        <use id="Fill-1" fill="#FFFFFF" xlink:href="#path-1"></use>
        <g id="Color/Site-Grays/Light-Slate" mask="url(#mask-2)" fill="#9A9CAE">
            <rect id="9A9CAE" x="0" y="0" width="24" height="24"></rect>
        </g>
    </g>
</svg>